<svg width="1600" height="2000" viewBox="0 0 1600 2000" fill="none" xmlns="http://www.w3.org/2000/svg" role="img" aria-labelledby="title desc">
  <title id="title">CBS Data Story work card</title>
  <desc id="desc">Editorial card with data visualization and typography for the CBS digital narrative project.</desc>

  <rect width="1600" height="2000" fill="#F3F4F6"/>

  <text x="96" y="140" fill="#0D0D0D" font-family="Alte Haas Grotesk, Arial, sans-serif" font-size="64" font-weight="700" letter-spacing="2">CBS DATA STORY</text>

  <g opacity="0.9">
    <rect x="100" y="360" width="1400" height="1020" rx="28" fill="#FFFFFF"/>
    <rect x="100" y="360" width="1400" height="1020" rx="28" stroke="#E5E7EB" stroke-width="4"/>

    <line x1="210" y1="1220" x2="1370" y2="1220" stroke="#D1D5DB" stroke-width="6"/>
    <line x1="210" y1="520" x2="210" y2="1220" stroke="#D1D5DB" stroke-width="6"/>

    <rect x="300" y="1010" width="120" height="210" rx="14" fill="#CBD5E1"/>
    <rect x="470" y="930" width="120" height="290" rx="14" fill="#94A3B8"/>
    <rect x="640" y="840" width="120" height="380" rx="14" fill="#64748B"/>
    <rect x="810" y="760" width="120" height="460" rx="14" fill="#475569"/>
    <rect x="980" y="690" width="120" height="530" rx="14" fill="#334155"/>

    <path d="M230 1120C330 1060 440 980 550 920C680 850 760 880 860 820C980 750 1110 650 1250 560" stroke="#FF2FA0" stroke-width="20" stroke-linecap="round"/>
    <circle cx="230" cy="1120" r="20" fill="#FF2FA0"/>
    <circle cx="550" cy="920" r="20" fill="#FF2FA0"/>
    <circle cx="860" cy="820" r="20" fill="#FF2FA0"/>
    <circle cx="1250" cy="560" r="20" fill="#FF2FA0"/>
  </g>

  <text x="96" y="1570" fill="#0D0D0D" font-family="Alte Haas Grotesk, Arial, sans-serif" font-size="136" font-weight="700" letter-spacing="-2">Data krijgt betekenis</text>
  <text x="96" y="1710" fill="#0D0D0D" font-family="Alte Haas Grotesk, Arial, sans-serif" font-size="136" font-weight="700" letter-spacing="-2">in context</text>

  <text x="96" y="1860" fill="#6B7280" font-family="Alte Haas Grotesk, Arial, sans-serif" font-size="54" font-weight="400">Interactieve digital narrative i.s.m. CBS</text>
</svg>
