<?xml version="1.0" encoding="UTF-8"?>
<svg id="Layer_1" data-name="Layer 1" xmlns="http://www.w3.org/2000/svg" viewBox="0 0 336 420">
  <defs>
    <style>
      .cls-1 {
        fill: #7359a5;
      }

      .cls-2 {
        fill: #db4152;
      }

      .cls-3 {
        fill: #f4dc79;
      }

      .cls-4 {
        fill: #568dc9;
      }

      .cls-5 {
        fill: #e298c2;
      }
    </style>
  </defs>
  <rect width="336" height="420"/>
  <path class="cls-2" d="M105.22,212.3c0,3.94-.79,7.49-2.38,10.66v-.07c-1.44,2.98-3.53,5.48-6.26,7.52-2.74,2.04-5.78,3.06-9.14,3.06-3.6,0-6.89-1.08-9.86-3.24h.07c-.96-.58-2.09-2.11-3.38-4.61-1.3-2.5-1.94-5.04-1.94-7.63,0-.1.02-.71.07-1.84.05-1.13.07-1.91.07-2.34,1.92-.62,3.74-.94,5.47-.94,1.25,0,2.38.17,3.38.5l-.14,3.46c0,.14-.01.37-.04.68-.02.31-.04.56-.04.76,0,2.78.33,4.42,1.01,4.9.58.72,1.37,1.25,2.38,1.58,1.01.34,1.75.5,2.23.5,1.68,0,3.58-1.2,5.69-3.6,2.11-2.4,3.17-5.52,3.17-9.36,0-2.54-.56-4.22-1.69-5.04-1.13-.82-3.25-1.44-6.37-1.87-5.52-.82-9.29-2.5-11.3-5.04-.77-1.01-1.34-2.1-1.73-3.28-.38-1.18-.6-2.15-.65-2.92-.05-.77-.07-1.99-.07-3.67v-1.51c0-6.77,1.18-11.5,3.53-14.18,2.4-2.78,5.76-4.18,10.08-4.18,2.88,0,5.39.37,7.52,1.12,2.14.74,3.66,1.67,4.57,2.77v-.07c1.68,2.06,2.64,4.46,2.88,7.2v6.41l-8.71-.14v-5.83c-.29-2.3-1.99-3.46-5.11-3.46-4.08,0-6.12,3.26-6.12,9.79,0,2.64.47,4.69,1.4,6.16.94,1.46,2.53,2.36,4.79,2.7,6.43.96,10.81,2.53,13.14,4.72,2.33,2.18,3.49,5.63,3.49,10.33Z"/>
  <path class="cls-3" d="M147.55,185.59c-.1,4.56-1.58,9.07-4.46,13.54-2.3,3.46-5.09,6.04-8.35,7.74-3.26,1.7-7.37,2.56-12.31,2.56.1,1.49.36,4.92.79,10.3.43,5.38.74,9.5.94,12.38-2.88.72-5.28,1.08-7.2,1.08-1.15,0-2.14-.14-2.95-.43.1-1.49.14-3.48.14-5.98,0-3.41-.43-18.31-1.3-44.71-.19.05-.96.25-2.3.61-1.34.36-2.09.54-2.23.54l-1.66-8.5c.43-.1,1.91-.38,4.43-.86,2.52-.48,4.61-.88,6.26-1.19,1.66-.31,3.59-.61,5.8-.9s3.96-.43,5.26-.43c6.05,0,10.75,1.22,14.11,3.67,3.36,2.45,5.04,5.98,5.04,10.58ZM138.05,186.82c0-5.04-3.7-7.56-11.09-7.56-1.1,0-3,.29-5.69.86l.86,21.67c.29.05.72.07,1.3.07,2.98.05,5.69-.67,8.14-2.16,1.49-.91,2.94-2.64,4.36-5.18,1.42-2.54,2.12-5.11,2.12-7.7Z"/>
  <path class="cls-4" d="M187.26,223.22c-1.38.84-3.11,1.25-5.22,1.25-1.01,0-1.99-.07-2.95-.22l-3.88-13.9c-3.71.24-8.09.36-13.13.36-.18.95-.68,3.63-1.51,8.06-.83,4.42-1.42,7.57-1.77,9.44-.19,0-.45.01-.79.04-.33.02-.57.04-.71.04-2.62,0-4.95-.41-7-1.22l.67-3.54c.11-.57.47-2.52,1.1-5.87.63-3.35,1.08-5.76,1.36-7.22-.14,0-.59-.01-1.33-.04-.75-.02-1.55-.04-2.41-.04h-1.94c-.1-.86-.14-1.68-.14-2.45,0-1.39.38-3.19,1.15-5.4,2.83.05,4.88.07,6.16.07.52-1.95,1.32-4.93,2.39-8.94,1.07-4.01,2.1-7.87,3.09-11.57.99-3.7,1.93-7.21,2.81-10.52,1.61-.29,4.46-.74,8.56-1.37.43,1.48,2.72,9.31,6.87,23.5,4.15,14.19,7.03,24.03,8.64,29.53ZM172.94,202.22l-4.87-17.42c-.46,1.72-1.23,4.59-2.31,8.62-1.08,4.03-1.8,7.09-2.15,9.16,3.56-.1,6.67-.22,9.33-.36Z"/>
  <path class="cls-1" d="M228.77,230.74l-4.25,7.56c-2.07-.77-4.51-2.26-7.35-4.46-2.83-2.21-5.36-4.6-7.56-7.18-2.11-2.24-4.97-7.45-8.57-15.61-.81,4.39-1.75,10.57-2.82,18.54l-7.68-1.8c1.44-7.53,3.07-18.15,4.87-31.87,0-.05.03-.24.09-.57.45-2.87,1.2-7.71,2.22-14.51-3.22.93-5.21,1.51-5.98,1.74-.14-1.68-.22-3.74-.22-6.19l.07-2.59c1.06-.29,2.02-.5,2.88-.65.86-.14,1.71-.26,2.52-.36.82-.1,1.48-.19,1.99-.29l.56-3.68c1.66-.14,4.32-.28,7.97-.42l-.65,3.46h1.73c4.46,0,7.91,1.19,10.33,3.56s3.64,5.56,3.64,9.54c0,4.85-1.44,9.11-4.32,12.78-2.88,3.67-6.65,6.01-11.31,7.02,2.3,5.86,5.23,10.85,8.79,14.98s7.9,7.8,13.04,11.02ZM213.5,186.24c0-2.11-.51-3.76-1.52-4.94s-2.41-1.77-4.2-1.77c-.19,0-.5.02-.92.07-.42.05-.78.07-1.06.07-.12,1.3-.56,4.21-1.33,8.74l-1.27,8.35c0,.41-.05.72-.14.93,6.31-1.15,9.79-4.97,10.44-11.46Z"/>
  <path class="cls-5" d="M263.33,183.5l-4.87,4.06.05-.05-10.3,8.58c-.67.58-2.5,1.75-5.47,3.52h.07c-.1.05-.31.18-.65.4-.34.22-.6.37-.79.47.86.96,1.88,2.07,3.06,3.35,1.17,1.27,2.03,2.18,2.56,2.73.53.55,1.16,1.24,1.91,2.05.75.82,1.3,1.4,1.66,1.76.36.36.77.79,1.23,1.3s.85.89,1.18,1.17c.33.28.67.56,1.02.86.35.29.74.62,1.16.97s.81.68,1.16.97.86.72,1.52,1.27l5.14,4.31c-.14.43-.3.85-.47,1.26-.17.41-.35.77-.54,1.08-.19.31-.42.66-.68,1.04-.26.38-.49.68-.68.9-.19.22-.44.49-.76.83s-.53.56-.65.68c-.12.12-.35.33-.68.65s-.53.49-.58.54l-3.03-2.73c-2.83-2.11-7-6.27-12.52-12.46l-2.95-3.53c-.14,2.3-.29,6.11-.43,11.41-.14,5.3-.24,8.34-.29,9.11-1.15.33-2.38.5-3.67.5-1.82,0-3.6-.43-5.33-1.3l.22-2.23c0-.29.01-.68.04-1.19.02-.5.04-.88.04-1.12l.36-23.4c0-.67.06-2.92.18-6.73.12-3.82.24-7.79.36-11.92.12-4.13.18-7.3.18-9.5,1.58-.38,3.24-.58,4.97-.58,1.3,0,2.62.12,3.96.36l-.43,18.65c4.94-3.12,9.98-7.01,15.11-11.67l2.96-2.66c2.64,1.83,4.54,3.91,5.69,6.26Z"/>
</svg>