<?xml version="1.0" encoding="UTF-8"?>
<svg id="Layer_1" data-name="Layer 1" xmlns="http://www.w3.org/2000/svg" viewBox="0 0 336 420">
  <defs>
    <style>
      .cls-1 {
        stroke-width: 1.21px;
      }

      .cls-1, .cls-2, .cls-3, .cls-4, .cls-5, .cls-6, .cls-7, .cls-8, .cls-9, .cls-10, .cls-11 {
        stroke: #000;
        stroke-miterlimit: 10;
      }

      .cls-1, .cls-9 {
        fill: #e298c2;
      }

      .cls-2 {
        stroke-width: 1.03px;
      }

      .cls-2, .cls-4 {
        fill: #568dc9;
      }

      .cls-3 {
        stroke-width: 1.11px;
      }

      .cls-3, .cls-11 {
        fill: #f4dc79;
      }

      .cls-12 {
        fill: #fff;
      }

      .cls-13 {
        fill: #3a3a3a;
      }

      .cls-4 {
        stroke-width: 1.05px;
      }

      .cls-5 {
        stroke-width: 1.19px;
      }

      .cls-5, .cls-8 {
        fill: #55b069;
      }

      .cls-6 {
        fill: #f0564a;
        stroke-width: 1.11px;
      }

      .cls-7 {
        stroke-width: 1.17px;
      }

      .cls-7, .cls-10 {
        fill: #7359a5;
      }

      .cls-8 {
        stroke-width: 1.12px;
      }

      .cls-9 {
        stroke-width: 1.16px;
      }

      .cls-10 {
        stroke-width: .94px;
      }

      .cls-11 {
        stroke-width: 1.04px;
      }
    </style>
  </defs>
  <g>
    <path class="cls-6" d="M204,204.63c.05,7.62.06,24.27.09,32.18,0,.57,0,1.23.11,1.71.08.39.25.64.55.75.45.22,1.77-.09,2.51-.31,1.6-.44,3.53-1.17,5.01-1.48,1.71-.37,2.49.04,2.31,1.69-.2,1.57-.9,3.62-2.36,4.57-1.72,1.07-4,.85-6.03.88-1.17-.05-3.06.04-3.93-.61-.28-.22-.43-.52-.52-.92-.99-9.3-2.66-29.23-3.48-38.14"/>
    <path class="cls-6" d="M186.46,205.69c-.05,7.62-.06,24.27-.09,32.18,0,.57,0,1.23-.11,1.71-.08.39-.25.64-.55.75-.45.22-1.77-.09-2.51-.31-1.6-.44-3.53-1.17-5.01-1.48-1.71-.37-2.49.04-2.31,1.69.2,1.57.9,3.62,2.36,4.57,1.72,1.07,4,.85,6.03.88,1.17-.05,3.06.04,3.93-.61.28-.22.43-.52.52-.92.99-9.3,2.66-29.23,3.48-38.14"/>
    <path class="cls-6" d="M205.15,187.95l13.8.25c1.67,2.75-6.4,8.08-5.19,9.4,3.44,1.28,8.07,3.2,10.28,6.15-.16,1.95-11.49,4.87-13.76,5.21l1.18,13.6c-1.69,1.59-9.09-4.7-10.58-5.74l-6.43,11.01c-2.11.08-3.31-10.42-4.28-12.42-.47-.45-9.55,5.97-11.2,6.5-1.38.44-2.04.68-3.14-.49l3.61-10.28c-2-.21-11.8-2.92-11.6-5.24.51-2.39,10.97-4.58,10.87-5.18-1.73-3.33-6.2-6.89-7.62-10.13-2.88-6.54,8.16-1.84,11.52-3.11l.58-11.64c2.49-2.29,8.2,7.52,10.29,8.69,1.13.11,9.01-10.32,10.84-10.22,2.47.14.98,11.5.84,13.64Z"/>
    <g>
      <path class="cls-12" d="M190.72,192.11h.41c1.38,0,2.49,1.12,2.49,2.49v6.2c0,1.6-1.3,2.91-2.91,2.91h0c-1.6,0-2.91-1.3-2.91-2.91v-5.78c0-1.6,1.3-2.91,2.91-2.91Z"/>
      <rect class="cls-12" x="195.91" y="192.11" width="5.81" height="11.6" rx="2.91" ry="2.91"/>
      <g>
        <path d="M190.81,191.65c-3.16,0-3.53,3.57-3.53,6.26s.36,6.26,3.53,6.26,3.53-3.34,3.53-6.26-.4-6.26-3.53-6.26ZM190.81,203.7c-2.04,0-2.99-1.84-2.99-5.8s.95-5.8,2.99-5.8c1.14,0,1.93.54,2.41,1.69-.22-.19-.5-.29-.84-.29-1.54,0-1.74,2.24-1.74,4.19s.2,4.19,1.74,4.19c.46,0,.8-.19,1.05-.52-.44,1.59-1.3,2.33-2.62,2.33Z"/>
        <path d="M198.9,191.65c-3.16,0-3.53,3.57-3.53,6.26s.36,6.26,3.53,6.26,3.53-3.34,3.53-6.26-.4-6.26-3.53-6.26ZM198.9,203.7c-2.04,0-2.99-1.84-2.99-5.8s.95-5.8,2.99-5.8c1.14,0,1.93.54,2.41,1.69-.22-.19-.5-.29-.84-.29-1.54,0-1.74,2.24-1.74,4.19s.2,4.19,1.74,4.19c.46,0,.8-.19,1.05-.52-.44,1.59-1.3,2.33-2.62,2.33Z"/>
      </g>
    </g>
    <path d="M194.84,205.71c.24-.06.51-.06.77,0,.38.09.71.28.92.56.2.25.27.54.21.81-.06.27-.25.5-.54.65-.31.16-.69.2-1.07.11-.21-.05-.41.08-.45.29-.05.21.08.41.29.45.19.04.37.06.55.06.36,0,.72-.08,1.03-.24.49-.25.82-.66.94-1.16s-.01-1.01-.35-1.45c-.32-.42-.8-.71-1.35-.84-.38-.08-.76-.08-1.12,0-.2.05-.33.26-.28.46s.26.33.47.28Z"/>
    <path d="M201.39,208.07c-.63-.03-1.25.19-1.72.62-.15.14-.17.38-.03.54.14.15.38.17.54.03.32-.29.74-.44,1.17-.42.09,0,.17.02.25.03-.71,3.31-3.17,5.61-6.04,5.61-3.24,0-5.97-3.02-6.22-6.87,0-.11-.06-.21-.15-.27.13-.02.27-.03.41-.02.43.04.83.24,1.11.57.14.16.38.18.54.04s.18-.38.04-.54c-.41-.48-.99-.78-1.63-.83s-1.26.15-1.74.57-.78.99-.83,1.63c-.02.21.14.39.35.41h.03c.2,0,.36-.15.38-.35.04-.43.24-.83.57-1.11.05-.05.11-.09.17-.12,0,.03,0,.05,0,.08.28,4.25,3.34,7.59,6.98,7.59,3.19,0,5.92-2.46,6.75-6.03.06.05.12.1.17.16.29.32.44.74.42,1.17-.01.21.15.39.36.4h.02c.2,0,.37-.16.38-.36.03-.64-.19-1.25-.62-1.72-.43-.47-1.01-.75-1.65-.78Z"/>
  </g>
  <g>
    <path class="cls-9" d="M94.74,202.5c.05,7.99.06,25.46.1,33.76,0,.59,0,1.29.11,1.79.09.41.26.67.58.79.47.23,1.85-.09,2.64-.32,1.68-.46,3.71-1.22,5.26-1.55,1.79-.39,2.61.04,2.42,1.78-.21,1.65-.95,3.8-2.48,4.8-1.8,1.12-4.2.9-6.33.93-1.23-.05-3.22.04-4.12-.64-.29-.23-.45-.54-.55-.96-1.04-9.75-2.79-30.67-3.65-40.02"/>
    <path class="cls-9" d="M76.34,203.61c-.05,7.99-.06,25.46-.1,33.76,0,.59,0,1.29-.11,1.79-.09.41-.26.67-.58.79-.47.23-1.85-.09-2.64-.32-1.68-.46-3.71-1.22-5.26-1.55-1.79-.39-2.61.04-2.42,1.78.21,1.65.95,3.8,2.48,4.8,1.8,1.12,4.2.9,6.33.93,1.23-.05,3.22.04,4.12-.64.29-.23.45-.54.55-.96,1.04-9.75,2.79-30.67,3.65-40.02"/>
    <path class="cls-1" d="M85.9,187.08c.71-.88,5.37-5.88,6-6.01.37-.07.49.18.63.43.48.88.77,5.72,1.59,5.88,1.23-.61,9.66-5.15,10.23-5.05,1.1.2-.22,4.6-.43,5.41-.52,2.03-1.65,4.09-1.6,6.17.34.48,10.28,2.98,11.86,3.69.31.14.93.32.83.75l-12.98,8.64c-.28,1.01,6.58,7.19,6.22,7.91-.47.93-1.97.25-2.77.24-.97-.01-5.83-.12-6.25.13-.33.2-.23.41-.2.69.1,1.13,1.69,7.09,1.03,7.51-.39.11-.71,0-1.07-.13-.95-.32-6.41-2.95-6.77-2.87l-6.39,9.83c-.28.28-.73.31-1.12.28-.95-.07-4.08-9.92-5.28-11.13-.81-.21-5.86,3.66-7.12,4.1-.38.13-.64.1-.96-.12-.6-.55,1.33-6.56,1.32-7.77l-11.88,4.27c-.59-.4.3-2.08.56-2.6,1.48-2.89,3.79-5.81,5.5-8.62l-10.79-2.28c-.2-.98,5.91-4.7,6.89-5.58l-.34-.78-6.29-5.24-.26-1.15,9.41-.76-2.17-5.98.41-.56c1.29-.12,7.86,3.5,8.41,3.01l-.83-14.89c.7-.62,3.84,2.57,4.43,3.15,3.07,2.99,5.85,6.28,8.97,9.23l1.21.19Z"/>
    <g>
      <path d="M91.04,206.75c-.39-.34-.9-.51-1.42-.48-.52.03-1,.27-1.34.67-.12.14-.1.34.03.46s.34.1.46-.03c.23-.26.55-.42.89-.44.06,0,.12,0,.18,0-.26,2.71-2.02,4.78-4.31,5.05-2.6.31-5.07-1.86-5.64-4.93-.02-.08-.06-.15-.12-.2.09-.02.19-.04.29-.04.35-.01.68.11.94.35.13.12.34.12.46-.02.12-.13.12-.34-.02-.46-.38-.36-.88-.54-1.4-.52-.52.02-1.01.24-1.36.63s-.54.88-.52,1.4c0,.18.15.31.33.31h.01c.18,0,.32-.16.31-.34-.01-.35.11-.68.35-.94.03-.03.06-.06.09-.09,0,.01,0,.02,0,.03.59,3.19,3.07,5.5,5.8,5.5.19,0,.38-.01.56-.03,2.57-.3,4.53-2.53,4.87-5.48.04.03.09.06.13.1.26.23.42.55.44.89.01.17.15.31.33.31h.02c.18-.01.32-.17.3-.35-.04-.52-.27-1-.67-1.34Z"/>
      <path d="M86.68,208.28c.21.02.3.08.31.11.02.08-.08.28-.31.42-.16.1-.72.38-1.41-.19-.14-.12-.35-.09-.46.05s-.09.35.05.46c.43.36.87.49,1.27.49.35,0,.66-.1.9-.26.45-.29.69-.74.6-1.13-.04-.17-.21-.56-.89-.61-1.03-.08-1.54-1.72-1.64-2.34-.03-.18-.2-.3-.38-.27-.18.03-.3.2-.27.38.02.11.5,2.74,2.24,2.88Z"/>
      <g>
        <path class="cls-13" d="M89.96,198.36s-.02,0-.04,0l-4.29.1c-1.42,0-.29-1.07-.07-2.41.01-.08.13-.09.15,0h0c.02.08.14.07.15-.01.14-1.46.94-3.21,2.35-3.21h1.69s.05.01.06.03c.71.92,1.1,2.3,2.03,2.75.03.01.04.04.04.07v.42s.55.38.55.38c.28,2.32-.73,2.87-2.63,1.91Z"/>
        <path class="cls-13" d="M81.96,198.71s-.02,0-.04,0l-4.29.1c-1.42,0-.29-1.07-.07-2.41.01-.08.15,0,.15,0,.02.08,1.18-3.76,2.5-3.22h1.69s.05.01.06.03c.71.92,1.1,2.3,2.03,2.75.03.01.04.04.04.07v.42s.28.81.28.82c.28,2.32-.46,2.44-2.36,1.47Z"/>
        <path class="cls-12" d="M81.42,204.4h-1.31c-1.52,0-2.76-1.21-2.76-2.68v-2c0-1.48,1.24-2.68,2.76-2.68h1.31c1.52,0,2.76,1.21,2.76,2.68l-.23,2.01c0,1.48-1.01,2.67-2.53,2.67Z"/>
        <path class="cls-12" d="M89.68,204.61h-1.31c-1.52,0-2.76-1.21-2.76-2.68v-2c0-1.48,1.24-2.68,2.76-2.68h1.31c1.52,0,2.76,1.21,2.76,2.68l-.15,1.29c0,1.48-1.1,3.39-2.61,3.39Z"/>
        <path d="M84.7,198.87c0-3.58-1.76-6.39-4.01-6.39-1.71,0-3.14,1.62-3.72,3.97,0-.02-.02-.03-.03-.05-.06-.12-.21-.16-.34-.1-.12.06-.17.21-.1.33.1.18.21.34.32.48-.04.26-.08.53-.11.8-.34-.27-.68-.63-.93-1.08-.06-.12-.21-.16-.33-.1-.12.06-.17.21-.1.32.35.65.87,1.12,1.33,1.43,0,.12,0,.25,0,.38,0,.1,0,.19,0,.29-.57-.33-1.4-.93-1.93-1.89-.06-.12-.21-.16-.33-.1-.12.06-.17.21-.1.32.69,1.24,1.78,1.92,2.4,2.23.25,3.16,1.91,5.54,3.97,5.54s3.87-2.6,4-5.99h0c0-.14,0-.27,0-.41ZM80.99,193.23s.01,0,.02,0c.09.02.19.04.28.07,0,0,.02,0,.03,0,.09.03.18.07.26.11.01,0,.02.01.04.02.08.04.17.1.25.15.01,0,.03.02.04.03.08.06.16.12.23.19.01.01.02.02.04.03.08.07.15.14.22.23,0,.01.02.02.03.04.07.08.15.17.22.26,0,.01.02.02.02.03.07.1.14.2.21.3,0,0,0,.01.01.02.07.11.13.22.19.34,0,0,0,0,0,.01.06.12.12.24.18.37,0,.01.01.03.02.04.05.12.1.25.15.38,0,.02.01.04.02.06.05.13.09.26.13.39,0,.02.01.04.02.06.04.13.07.27.11.41,0,.02,0,.05.02.07.03.14.06.28.09.43,0,.02,0,.05.01.07.02.15.05.3.06.45,0,.02,0,.04,0,.06.02.16.03.31.04.47h0c-.8-.99-1.95-1.6-3.16-1.6-.93,0-1.81.35-2.53.95-.18-.09-.43-.24-.69-.48,0-.03.01-.06.02-.09,0-.05.02-.1.03-.15,0-.04.02-.07.02-.11,0-.05.02-.09.03-.14,0-.04.02-.07.03-.11.01-.05.06-.21.07-.24.01-.04.02-.09.04-.13.01-.04.02-.07.03-.11.01-.04.03-.08.04-.13.01-.04.02-.07.04-.11.01-.04.03-.08.04-.12.01-.04.03-.07.04-.1.01-.04.03-.08.05-.12.01-.03.03-.07.04-.1.02-.04.03-.07.05-.11.01-.03.03-.06.05-.1.02-.04.03-.07.05-.11.02-.03.03-.06.05-.1.02-.03.04-.07.06-.1.02-.03.03-.06.05-.09.02-.03.04-.06.06-.1.02-.03.04-.06.05-.09.02-.03.04-.06.06-.09.02-.03.04-.06.06-.08s.04-.06.06-.09c.02-.03.04-.05.06-.08.02-.03.04-.06.07-.08.02-.02.04-.05.06-.07.02-.03.05-.05.07-.08.02-.02.04-.05.06-.07s.05-.05.07-.07c.02-.02.04-.04.06-.06.02-.02.05-.04.07-.07l.07-.06s.05-.04.07-.06c.02-.02.04-.04.07-.05.02-.02.05-.04.08-.06.02-.02.05-.03.07-.05.03-.02.05-.03.08-.05.02-.01.05-.03.07-.04.03-.01.05-.03.08-.04.02-.01.05-.02.07-.03.03-.01.06-.02.09-.04.02,0,.05-.02.07-.03.03,0,.06-.02.09-.03.02,0,.04-.01.07-.02.03,0,.06-.01.1-.02.02,0,.04,0,.06-.01.03,0,.07,0,.11-.01.02,0,.04,0,.05,0,.05,0,.11,0,.16,0,.1,0,.2.01.3.03ZM77.54,198.45s-.07-.04-.11-.06c0-.03,0-.05,0-.08,0-.03,0-.07,0-.1,0-.06,0-.12.01-.17,0-.04,0-.07,0-.11,0-.05,0-.11.02-.16.14.11.28.2.4.27-.12.13-.23.27-.34.41ZM77.5,200.09c.54-1.58,1.85-2.63,3.28-2.63,1.33,0,2.53.87,3.14,2.27-.1,1.07-.37,2.05-.78,2.85,0-.09,0-.17,0-.26,0-1.42-.9-2.57-2.01-2.57s-2.01,1.16-2.01,2.57c0,.86.33,1.62.84,2.08-1.21-.5-2.19-2.2-2.46-4.31Z"/>
        <path d="M95.14,197.17c-.12-.06-.27-.02-.33.1-.53.96-1.36,1.56-1.93,1.89,0-.1,0-.19,0-.29,0-.13,0-.25,0-.38.45-.32.97-.79,1.33-1.43.06-.12.02-.26-.1-.32-.12-.06-.27-.02-.33.1-.25.45-.59.81-.93,1.08-.02-.27-.06-.54-.11-.8.11-.14.22-.3.32-.48.06-.12.02-.26-.1-.33-.12-.06-.27-.02-.34.1,0,.02-.02.03-.03.05-.59-2.35-2.01-3.97-3.72-3.97-2.25,0-4.01,2.81-4.01,6.39,0,.14,0,.27,0,.4h0c.13,3.39,1.84,5.99,4,5.99s3.72-2.37,3.97-5.54c.61-.31,1.71-.99,2.4-2.23.07-.12.02-.26-.1-.32ZM92.09,197.93s0,.07,0,.11c0,.06,0,.12.01.17,0,.03,0,.07,0,.1,0,.02,0,.05,0,.08-.04.02-.07.04-.11.06-.11-.14-.22-.28-.35-.41.12-.07.26-.16.4-.27,0,.05.01.11.02.16ZM89.03,193.21s.04,0,.05,0c.03,0,.07,0,.11.01.02,0,.04,0,.06.01.03,0,.06.01.1.02.02,0,.04.01.07.02.03,0,.06.02.09.03.02,0,.05.02.07.03.03.01.06.02.09.04.02,0,.05.02.07.03.03.01.05.03.08.04.02.01.05.03.07.04.03.02.05.03.08.05.02.01.05.03.07.05.02.02.05.04.08.06.02.02.04.03.07.05.02.02.05.04.07.06.02.02.04.04.07.06.02.02.05.04.07.07.02.02.04.04.06.06.02.02.05.05.07.07.02.02.04.05.06.07.02.03.05.05.07.08.02.02.04.05.06.07.02.03.04.06.07.08.02.03.04.05.06.08.02.03.04.06.06.09.02.03.04.06.06.08.02.03.04.06.06.09.02.03.04.06.05.09.02.03.04.06.06.1.02.03.03.06.05.09.02.03.04.07.06.1.02.03.03.06.05.1.02.04.04.07.05.11.01.03.03.06.05.1.02.04.03.07.05.11.01.03.03.07.04.1.02.04.03.08.05.12.01.03.03.07.04.1.01.04.03.08.04.12.01.04.02.07.04.11.01.04.03.08.04.13.01.04.02.07.03.11.01.04.03.09.04.13,0,.04.02.07.03.11.01.05.02.09.04.13,0,.04.02.07.03.11.01.05.02.09.03.14,0,.04.02.07.02.11,0,.05.02.1.03.15,0,.03.01.06.02.09-.26.24-.51.39-.69.48-.72-.6-1.6-.95-2.53-.95-1.22,0-2.36.6-3.16,1.61h0c0-.17.02-.33.04-.48,0-.02,0-.04,0-.06.02-.15.04-.3.06-.45,0-.02,0-.05.01-.07.02-.14.05-.29.09-.43,0-.02,0-.05.02-.07.03-.14.07-.28.11-.41,0-.02.01-.04.02-.06.04-.13.08-.26.13-.39,0-.02.01-.04.02-.06.05-.13.1-.26.15-.38,0-.01.01-.03.02-.04.06-.13.12-.25.18-.37,0,0,0,0,0-.01.06-.12.13-.23.19-.34,0,0,0-.01.01-.02.07-.11.14-.21.21-.3,0-.01.02-.02.02-.03.07-.09.14-.18.22-.26,0-.01.02-.02.03-.04.07-.08.15-.15.22-.23.01-.01.02-.02.04-.03.08-.07.16-.13.23-.19.01,0,.03-.02.04-.03.08-.06.16-.11.25-.15.01,0,.02-.01.04-.02.09-.04.17-.08.26-.11,0,0,.02,0,.03,0,.09-.03.18-.06.28-.07,0,0,.01,0,.02,0,.1-.02.19-.03.3-.03.05,0,.11,0,.16,0ZM85.64,199.72c.61-1.4,1.81-2.27,3.14-2.27,1.44,0,2.74,1.06,3.28,2.63-.12.93-.38,1.78-.74,2.48,0-.09,0-.17,0-.26,0-1.42-.9-2.57-2.01-2.57s-2.01,1.16-2.01,2.57c0,.86.33,1.62.84,2.08-1.28-.53-2.3-2.4-2.51-4.67Z"/>
      </g>
    </g>
  </g>
  <g>
    <path class="cls-7" d="M302.48,204.62c-.05,8.04-.06,25.62-.1,33.97,0,.6,0,1.29-.11,1.8-.09.41-.26.67-.58.79-.48.24-1.87-.09-2.65-.32-1.69-.47-3.73-1.23-5.29-1.56-1.8-.39-2.63.04-2.44,1.79.21,1.66.95,3.82,2.49,4.83,1.82,1.13,4.23.9,6.37.93,1.24-.05,3.24.04,4.15-.64.29-.23.45-.55.55-.97,1.04-9.81,2.81-30.86,3.67-40.26"/>
    <path class="cls-7" d="M316.58,203.5c.05,8.04.06,25.62.1,33.97,0,.6,0,1.29.11,1.8.09.41.26.67.58.79.48.24,1.87-.09,2.65-.32,1.69-.47,3.73-1.23,5.29-1.56,1.8-.39,2.63.04,2.44,1.79-.21,1.66-.95,3.82-2.49,4.83-1.82,1.13-4.23.9-6.37.93-1.24-.05-3.24.04-4.15-.64-.29-.23-.45-.55-.55-.97-1.04-9.81-2.81-30.86-3.67-40.26"/>
    <path class="cls-10" d="M315.73,192.03c18.09-2.46,31.58,11.66,6.53,14.69-2.73,2.36,7.53,13.61,3.52,20.19-5.23,6.83-17.05-9.4-20.14-7.78-11.48,18.93-22.44,10.29-13.38-9.7-7.3-3.56-19.45-5.22-14.39-16.12,6.18-3.1,13.66-2.53,20.16-1.17,2.02-24.41,18.25-26.15,17.7-.1Z"/>
    <g>
      <path class="cls-12" d="M304.11,207.96l-3.95.33c-2.61,0-3.07-.09-3.07-2.71v-4.11c0-2.61,2.14-4.75,4.75-4.75h0c2.61,0,4.75,2.14,4.75,4.75l-.91,4.26c0,2.61,1.04,2.22-1.57,2.22Z"/>
      <path class="cls-12" d="M317.02,207.96l-3.95.33c-1.89,1.22-3.07-.09-3.07-2.71v-4.11c0-2.61,2.14-4.75,4.75-4.75h0c2.61,0,4.75,2.14,4.75,4.75l-.91,4.26c0,2.61,1.04,2.22-1.57,2.22Z"/>
      <path d="M316.07,209.95c-.5-.44-1.15-.65-1.81-.61-.66.04-1.27.35-1.71.85-.15.17-.13.44.04.59s.44.13.59-.04c.29-.33.69-.53,1.14-.56.08,0,.16,0,.23,0-.33,3.45-2.56,6.08-5.49,6.43-3.31.39-6.46-2.37-7.17-6.27-.02-.1-.07-.19-.15-.25.12-.03.24-.05.36-.06.44-.02.87.14,1.19.44.17.16.43.15.59-.02.16-.17.15-.43-.02-.59-.49-.45-1.12-.69-1.79-.66-.66.02-1.28.31-1.73.8s-.69,1.12-.66,1.79c0,.22.19.4.42.4h.02c.23,0,.41-.2.4-.43-.02-.44.14-.87.44-1.19.04-.04.08-.08.12-.12,0,.01,0,.03,0,.04.75,4.06,3.91,6.99,7.37,6.99.24,0,.48-.01.72-.04,3.26-.38,5.76-3.22,6.2-6.97.06.04.11.08.16.12.33.29.53.69.56,1.14.01.22.2.39.41.39h.03c.23-.02.4-.21.39-.44-.05-.67-.35-1.27-.85-1.71Z"/>
      <path d="M320.7,193.71c.06-.22-.07-.45-.3-.51s-.45.07-.51.3c-.57,2.15-2.22,3.31-2.49,3.49-.19-.17-.38-.32-.58-.45.54-.43,1.48-1.33,1.86-2.66.06-.22-.07-.45-.29-.51-.22-.06-.45.07-.51.29-.43,1.53-1.83,2.43-1.89,2.46h0c-.23-.08-.47-.15-.71-.18.48-.42.98-.98,1.32-1.7.1-.21,0-.46-.2-.55-.21-.1-.46,0-.56.2-.72,1.54-2.34,2.24-2.41,2.27-.03.01-.06.03-.08.05-2.19.93-3.8,3.98-3.8,7.58,0,2.17.59,4.26,1.63,5.74.07.1.18.17.31.17.12.01.24-.03.33-.12.81-.81,1.86-1.26,2.94-1.26.54,0,1.07.11,1.57.32,0,0,0,0,0,0,.04.02.08.04.12.06.07.03.13.06.2.1.06.03.13.07.19.11.04.02.08.05.12.07.07.05.14.1.21.15.02.02.04.03.07.05.08.06.16.12.23.19.08.07.16.14.23.21s.19.12.29.12c.01,0,.02,0,.04,0,.12-.01.23-.07.31-.17.06-.08.1-.17.16-.25,0,0,0,0,0,0,0,0,.01-.02.02-.03.1-.16.19-.32.29-.49,0,0,0-.02.01-.03.47-.89.81-1.93.99-3.03,0-.02,0-.04.01-.06.03-.21.06-.42.08-.63,0-.02,0-.04,0-.06.02-.22.04-.44.05-.67h0c0-.17.02-.32.02-.48,0-2.5-.77-4.73-1.98-6.17.56-.4,2.13-1.67,2.71-3.89ZM311.6,208.62c-.78-1.31-1.22-3.05-1.22-4.86,0-3.88,1.96-7.04,4.38-7.04,2.27,0,4.14,2.79,4.35,6.36-.36-.28-.78-.43-1.21-.43-1.39,0-2.48,1.5-2.48,3.41,0,.53.09,1.04.25,1.5-.3-.06-.6-.09-.91-.09-1.14,0-2.25.41-3.15,1.16Z"/>
      <path d="M310.52,211.89c.26.02.38.1.39.14.02.1-.1.35-.39.54-.2.12-.92.48-1.79-.24-.18-.15-.44-.12-.59.06s-.12.44.06.59c.55.45,1.11.62,1.62.62.44,0,.84-.13,1.15-.33.57-.36.88-.94.76-1.44-.05-.21-.27-.71-1.13-.77-1.3-.1-1.95-2.18-2.09-2.98-.04-.23-.26-.38-.48-.34-.23.04-.38.26-.34.48.02.14.63,3.48,2.84,3.66Z"/>
      <path d="M302.91,208.45h0c.6.17,1.14.47,1.63.89.08.07.17.14.24.22.08.08.19.12.29.12.01,0,.02,0,.04,0,.12-.01.23-.07.31-.17.1-.15.2-.31.29-.47,0,0,0,0,0,0,0,0,0-.01,0-.02.05-.09.1-.17.15-.27.05-.1.1-.19.15-.29.04-.08.08-.16.12-.24.08-.17.15-.35.22-.53.03-.07.05-.15.08-.22.05-.14.09-.28.14-.43.02-.07.04-.14.06-.22.05-.19.1-.39.14-.59.02-.09.04-.18.05-.27.02-.12.04-.25.06-.38.02-.11.03-.22.05-.33,0,0,0-.01,0-.02h0c.06-.48.09-.97.09-1.47,0-3.67-1.67-6.76-3.92-7.63-.15-.06-1.69-.76-2.4-2.26-.1-.21-.34-.3-.56-.2-.21.1-.3.34-.2.55.34.73.84,1.29,1.32,1.71-.24.04-.48.1-.71.19,0,0,0,0-.01,0-.06-.04-1.45-.93-1.89-2.46-.06-.22-.29-.35-.51-.29-.22.06-.35.29-.29.51.38,1.34,1.33,2.25,1.87,2.67-.2.13-.39.28-.58.45-.2-.13-1.93-1.3-2.51-3.5-.05-.22-.28-.35-.5-.29-.22.06-.36.29-.3.51.59,2.24,2.19,3.52,2.73,3.9-1.2,1.44-1.97,3.67-1.97,6.16,0,2.17.59,4.26,1.63,5.74.07.1.18.17.31.17.12.01.24-.03.33-.12.81-.81,1.85-1.26,2.94-1.26.37,0,.73.06,1.07.16ZM298.99,208.39c-.17.12.1.19,0,0-.66-1.26-1.53-2.97-1.53-4.62,0-3.88,1.96-7.04,4.38-7.04.3,0,.6.05.89.15.01,0,.02,0,.03.01.02.01.04.02.06.02.02,0,.04.02.06.02.01,0,.03,0,.04.01,1.67.68,2.97,2.92,3.25,5.71.03.28-.29.48-.53.33-.32-.21-.69-.32-1.07-.32-1.39,0-2.49,1.5-2.49,3.41,0,.34.04.67.11.99.05.22-.12.42-.34.42,0,0,0,0,0,0-1.02,0-2.01.32-2.85.92Z"/>
    </g>
  </g>
  <g>
    <path class="cls-2" d="M257.05,213.34c.03,5.14.04,16.36.06,21.7,0,.38,0,.83.07,1.15.06.26.17.43.37.51.31.15,1.19-.06,1.69-.21,1.08-.3,2.38-.79,3.38-1,1.15-.25,1.68.03,1.56,1.14-.13,1.06-.61,2.44-1.59,3.08-1.16.72-2.7.58-4.07.6-.79-.03-2.07.03-2.65-.41-.19-.15-.29-.35-.35-.62-.67-6.27-1.79-19.71-2.35-25.72"/>
    <path class="cls-2" d="M245.22,214.06c-.03,5.14-.04,16.36-.06,21.7,0,.38,0,.83-.07,1.15-.06.26-.17.43-.37.51-.31.15-1.19-.06-1.69-.21-1.08-.3-2.38-.79-3.38-1-1.15-.25-1.68.03-1.56,1.14.13,1.06.61,2.44,1.59,3.08,1.16.72,2.7.58,4.07.6.79-.03,2.07.03,2.65-.41.19-.15.29-.35.35-.62.67-6.27,1.79-19.71,2.35-25.72"/>
    <path class="cls-4" d="M258.38,178.98c.42-.06,1.13.33,2.25.92,1.53.85,4.31,2.09,5.54,3.07.86.78.1,1.76-.32,2.61-1.5,2.75-4.15,7.02-4.5,9.47-.28,1.57.32,1.94,1.86,1.67,3.09-.46,7.4-1.12,10.43-1.58.92-.09,2.46-.63,2.63.44.34,1.44.76,5.05.98,6.6.06.87.26,1.34-.31,1.76-3.17.96-13.39,2.9-16.58,3.77-.56.17-.3.65-.12,1.07,1.19,2.55,5.81,12.25,7.04,14.89.57,1.24-.26,1.36-1.64,2.2-.81.45-1.86,1.02-2.8,1.55-1.25.64-2.12,1.33-3.26,1.46-2.53-.21-5.05-9.79-7.62-12.06-1.41-1.53-2.05-1.34-3.16,1.01-1.56,2.91-3.89,7.44-5.12,9.65-.32.59-.76.74-1.42.42-1.11-.52-2.87-1.47-4.14-2.13-1.08-.72-3.67-1.37-3.25-2.83,1.09-2.6,3.27-5.69,4.28-8.55.5-1.36.65-2.43.33-2.89-.69-.8-3.17-.05-4.52,0-1.97.23-4.04.5-6,.71-1.11.11-1.52,0-1.89-.88-.42-1.08-.73-2.23-1.1-3.36-.34-1.1-.87-2.64-1.03-3.54-.03-.27,0-.45.11-.58.2-.21.52-.27.83-.33,2.4-.44,9.61-1.71,13.42-2.39,1.82-.32,2.7-.4,3.01-1.27.62-1.57-.66-4.74-1.58-6.51-1.36-2.75-3.21-5.66-4.16-7.84-.78-1.75-.34-3.48,1.67-4.12,1.08-.42,2.41-.77,3.54-1.13,1.34-.36,2.29-.73,3.16.17,1.69,2.71,2.63,6.23,4.84,8.52.95,1.07,1.98,1.96,2.82.27,1.19-2.19,3.78-7.16,4.86-9.19.24-.4.43-.9.89-1.02h.03Z"/>
    <g>
      <path d="M254.77,208c-.41-.02-.82.12-1.12.4-.1.09-.11.25-.02.35.09.1.25.11.35.02.21-.19.48-.29.77-.27.06,0,.11.01.16.02-.46,2.16-2.07,3.66-3.94,3.66-2.11,0-3.9-1.97-4.06-4.49,0-.07-.04-.14-.1-.18.09-.01.18-.02.27-.01.28.02.54.15.73.37.09.1.25.12.35.03s.12-.25.03-.35c-.27-.32-.65-.51-1.07-.54s-.82.1-1.14.37-.51.65-.54,1.07c-.01.14.09.26.23.27h.02c.13,0,.24-.1.25-.23.02-.28.15-.54.37-.73.03-.03.07-.06.11-.08,0,.02,0,.03,0,.05.18,2.78,2.18,4.95,4.56,4.95,2.08,0,3.86-1.61,4.41-3.94.04.03.08.07.11.1.19.21.29.48.27.77,0,.14.1.25.24.26h.01c.13,0,.24-.1.25-.24.02-.42-.12-.82-.4-1.12-.28-.31-.66-.49-1.08-.51Z"/>
      <g>
        <rect class="cls-12" x="245.59" y="197.23" width="5.78" height="9.01" rx="2.89" ry="2.89"/>
        <path class="cls-12" d="M253.89,206.19l-.35.03c-1.59,0-2.54-1.33-2.54-2.92v-3.23c0-1.59,1.1-3.31,2.69-3.31l.2.43c1.59,0,2.41,1.23,2.41,2.82v3.23c0,1.59-.82,2.96-2.41,2.96Z"/>
        <g>
          <path d="M253.55,198.21c-1.34,0-1.49,1.91-1.49,3.35s.15,3.35,1.49,3.35,1.49-1.79,1.49-3.35-.17-3.35-1.49-3.35Z"/>
          <path d="M256.83,195.47c.03-.13-.04-.26-.17-.29s-.26.04-.29.17c-.27,1.05-1.02,1.66-1.27,1.84-.11-.08-.23-.14-.36-.2.31-.28.74-.76.93-1.41.04-.13-.04-.26-.17-.3-.13-.04-.26.04-.3.17-.21.74-.8,1.22-1.02,1.37-.15-.03-.32-.05-.49-.05.28-.24.56-.56.76-.98.06-.12,0-.26-.12-.32-.12-.06-.26,0-.32.12-.42.89-1.35,1.29-1.39,1.31-.02,0-.03.02-.05.03-.7.24-1.22.78-1.55,1.6-.15-.38-.35-.72-.62-1,.36-.28,1.07-.95,1.36-2.04.03-.13-.04-.26-.17-.29-.13-.03-.26.04-.29.17-.27,1.05-1.02,1.66-1.27,1.84-.11-.08-.23-.14-.36-.2.31-.28.74-.76.93-1.41.04-.13-.04-.26-.17-.3-.13-.04-.26.04-.3.17-.21.74-.8,1.22-1.02,1.37-.15-.03-.32-.05-.49-.05.28-.24.56-.56.76-.98.06-.12,0-.26-.12-.32-.12-.06-.26,0-.32.12-.42.89-1.35,1.29-1.39,1.31-.01,0-.03.01-.04.02-1.8.61-2.03,2.98-2.03,4.83,0,2.14.31,4.97,3,4.97,1.38,0,2.13-.74,2.54-1.76.48,1.16,1.32,1.75,2.53,1.75,2.69,0,3-2.84,3-4.97,0-1.45-.14-3.23-1.08-4.22.36-.28,1.07-.95,1.36-2.04ZM248.48,206.22c-1.74,0-2.52-1.39-2.52-4.49s.78-4.49,2.52-4.49,2.52,1.39,2.52,4.49-.78,4.49-2.52,4.49ZM253.55,206.22c-1.19,0-1.91-.64-2.27-2.02,0-.02,0-.03-.02-.05.18-.79.22-1.66.22-2.43s-.04-1.64-.22-2.43c0-.01.01-.03.02-.05.36-1.37,1.08-2.01,2.27-2.01,1.74,0,2.52,1.39,2.52,4.49s-.78,4.49-2.52,4.49Z"/>
          <path d="M248.48,198.21c-1.34,0-1.49,1.91-1.49,3.35s.15,3.35,1.49,3.35,1.49-1.79,1.49-3.35c0-1.56-.17-3.35-1.49-3.35Z"/>
          <path d="M251.83,206.36c-.27-.06-.56-.06-.82,0-.13.03-.21.16-.17.29s.16.21.29.18c.19-.05.39-.05.6,0,.29.07.55.22.71.43.16.2.21.43.17.65s-.2.4-.43.51c-.24.12-.54.15-.83.09-.13-.03-.26.05-.29.18-.03.13.05.26.18.29.13.03.27.04.4.04.26,0,.52-.06.75-.17.36-.18.6-.48.68-.84s0-.73-.26-1.05c-.24-.3-.59-.52-.99-.61Z"/>
        </g>
      </g>
    </g>
  </g>
  <g>
    <path class="cls-3" d="M150.26,203.42c.05,7.66.06,24.4.09,32.36,0,.57,0,1.23.11,1.72.09.39.25.64.55.76.46.22,1.78-.09,2.53-.31,1.61-.45,3.55-1.17,5.04-1.49,1.72-.37,2.5.04,2.32,1.7-.2,1.58-.91,3.64-2.37,4.6-1.73,1.07-4.03.86-6.06.89-1.18-.05-3.08.04-3.95-.61-.28-.22-.43-.52-.53-.92-1-9.35-2.67-29.39-3.5-38.35"/>
    <path class="cls-3" d="M133.28,202.21c-.05,7.66-.06,24.4-.09,32.36,0,.57,0,1.23-.11,1.72-.09.39-.25.64-.55.76-.46.22-1.78-.09-2.53-.31-1.61-.45-3.55-1.17-5.04-1.49-1.72-.37-2.5.04-2.32,1.7.2,1.58.91,3.64,2.37,4.6,1.73,1.07,4.03.86,6.06.89,1.18-.05,3.08.04,3.95-.61.28-.22.43-.52.53-.92,1-9.35,2.67-29.39,3.5-38.35"/>
    <path class="cls-11" d="M141.18,176.7c3.32,9.72,11.4,16.76,22.01,20.92,2.85,1.12,7.73.43,4.99,4.4-.22.32-5.85,2.55-7.58,3.89-9.36,7.24-12.12,14.85-17.26,24.27-5.15-13.54-15.65-21.74-30.83-27.36-.75-2.6,11.88-6.44,15.11-9.05,1.67-1.35,5.45-5.87,6.69-7.7,1.02-1.5,3.24-11.66,6.86-9.36Z"/>
    <g>
      <path class="cls-12" d="M138.17,202.52l-2.81.53c-1.38,0-3.53,2.35-3.53.98v-5.39c0-3.06,1.74-4.99,4.8-4.99l1.61,1.22c2.1.78,1.41.78,1.65,2.82l.91,3.7c.1,1.82-1.18,3.54-2.62,1.12Z"/>
      <path class="cls-12" d="M149.73,204.6l-2-.14c-1.38,0-3.6,1.57-4.09.48l-.73-6.12c.49-3.35,2.23-5.27,5.29-5.27l1.61,1.22c1.75,1.2,1.1,1.14,1.65,2.82l.91,3.7c-1.53,2.15-1.41,5.78-2.63,3.32Z"/>
      <path d="M147.47,193.08c-2.7,0-4.9,3.32-4.9,7.41,0,2.04.56,4.01,1.54,5.4.06.09.16.15.27.16,0,0,.02,0,.03,0,.1,0,.19-.04.26-.11.77-.77,1.76-1.2,2.79-1.2s2.03.42,2.79,1.2c.08.08.19.12.29.11.11,0,.21-.07.27-.16.98-1.39,1.54-3.36,1.54-5.4,0-4.09-2.2-7.41-4.9-7.41ZM150.46,205.11c-.43-.36-.9-.63-1.41-.82.18-.44.27-.94.27-1.46,0-1.59-.84-2.84-1.91-2.84s-1.91,1.25-1.91,2.84c0,.54.1,1.06.29,1.51-.46.19-.9.44-1.3.78-.75-1.24-1.17-2.9-1.17-4.62,0-3.68,1.86-6.67,4.15-6.67s4.15,2.99,4.15,6.67c0,1.72-.42,3.38-1.17,4.62Z"/>
      <path d="M141.57,207.11c.24-.06.5-.06.75,0,.37.08.69.28.89.55.19.25.26.53.21.79-.06.26-.24.49-.53.63-.3.15-.67.19-1.04.11-.2-.04-.4.08-.44.28-.04.2.08.4.28.44.18.04.36.06.54.06.35,0,.7-.08,1-.23.48-.24.8-.64.91-1.13s-.01-.99-.34-1.41c-.31-.41-.78-.69-1.32-.82-.37-.08-.74-.08-1.09,0-.2.05-.32.25-.27.45s.26.32.45.27Z"/>
      <path d="M147.36,205.9c-.62-.03-1.22.18-1.68.6-.15.14-.16.37-.02.52.14.15.37.16.52.02.31-.28.72-.43,1.14-.41.08,0,.17.02.24.03-.69,3.22-3.09,5.46-5.88,5.46-3.15,0-5.81-2.94-6.06-6.69,0-.11-.06-.2-.14-.27.13-.02.26-.03.4-.02.42.03.81.23,1.08.55.13.16.37.18.52.04s.18-.37.04-.52c-.4-.47-.97-.76-1.59-.81s-1.22.15-1.69.55-.76.97-.81,1.59c-.02.21.14.38.34.4h.03c.19,0,.35-.15.37-.34.03-.42.23-.81.55-1.08.05-.04.11-.08.17-.12,0,.03,0,.05,0,.08.27,4.14,3.26,7.39,6.8,7.39,3.1,0,5.76-2.4,6.57-5.87.06.05.11.1.16.16.28.31.43.72.41,1.14,0,.21.15.38.35.39h.02c.2,0,.36-.15.37-.35.03-.62-.18-1.22-.6-1.68-.41-.46-.99-.73-1.61-.76Z"/>
      <path d="M134.71,203.27c.1-.04.2-.08.3-.11.02,0,.03-.01.05-.02.09-.03.17-.05.26-.07.02,0,.03,0,.05-.01.21-.05.42-.08.63-.09h.03c.1,0,.19,0,.29,0h.04c.21,0,.42.03.63.08,0,0,.02,0,.03,0,.1.02.21.05.31.08,0,0,0,0,0,0,.82.25,1.55.78,2.1,1.52.08.11.21.16.34.15.13-.01.24-.1.3-.22.53-1.21.81-2.63.81-4.09,0-4.09-2.2-7.41-4.9-7.41s-4.9,3.32-4.9,7.41c0,1.65.35,3.21,1.01,4.51.06.12.18.2.32.2h.01c.13,0,.25-.07.32-.18.48-.81,1.17-1.41,1.96-1.75,0,0,0,0,0,0ZM132.49,204.08c-.43-1.07-.66-2.3-.66-3.59,0-3.68,1.86-6.67,4.15-6.67s4.15,2.99,4.15,6.67c0,1.14-.18,2.24-.52,3.23-.48-.59-.93-1.31-1.76-1.18.02-.19.04-.37.04-.55,0-1.59-.84-2.84-1.91-2.84s-1.92,1.25-1.92,2.84c0,.25.02.5.07.74-.63.32-1.19.78-1.65,1.36Z"/>
    </g>
  </g>
  <g>
    <path class="cls-5" d="M37.1,204.03c.05,8.23.06,26.2.1,34.75,0,.61,0,1.32.11,1.84.09.42.27.69.59.81.49.24,1.91-.09,2.71-.33,1.73-.48,3.81-1.26,5.41-1.59,1.84-.4,2.69.04,2.49,1.83-.21,1.7-.97,3.91-2.55,4.94-1.86,1.15-4.32.92-6.51.95-1.26-.05-3.31.04-4.24-.66-.3-.24-.46-.56-.56-.99-1.07-10.04-2.87-31.56-3.76-41.18"/>
    <path class="cls-5" d="M26.51,203.65c-.05,8.23-.06,26.2-.1,34.75,0,.61,0,1.32-.11,1.84-.09.42-.27.69-.59.81-.49.24-1.91-.09-2.71-.33-1.73-.48-3.81-1.26-5.41-1.59-1.84-.4-2.69.04-2.49,1.83.21,1.7.97,3.91,2.55,4.94,1.86,1.15,4.32.92,6.51.95,1.26-.05,3.31.04,4.24-.66.3-.24.46-.56.56-.99,1.07-10.04,2.87-31.56,3.76-41.18"/>
    <polygon class="cls-8" points="35.25 194.44 60.68 204.19 9.45 230.58 25.41 208.5 0 196.25 47.9 172.79 35.25 194.44"/>
    <g>
      <path class="cls-12" d="M21.09,202.21h0c-1.75,0-3.53-2.13-3.53-3.88l.16-6.71c0-1.75,1.24-3.78,2.99-3.78h0c1.75,0,3.19,2.24,3.19,3.99l-.39,7.15c0,1.75-.66,3.22-2.42,3.22Z"/>
      <path class="cls-12" d="M29.04,201.9l-.35.71c-1.75,0-3.53-2.13-3.53-3.88l.16-6.71c0-1.75,1.24-3.78,2.99-3.78h0c1.75,0,3.19,2.24,3.19,3.99l-.39,7.15c0,1.75-.32,2.51-2.07,2.51Z"/>
      <g>
        <path d="M20.61,187.85c-2.38,0-3.21,2.28-3.48,4.75h-.02s-1.2.16-2.24-.95c-.14-.14-.36-.15-.5-.01s-.15.36-.01.5c.99,1.04,2.07,1.18,2.58,1.18.05,0,.09,0,.14,0-.05.65-.06,1.31-.06,1.92,0,.29,0,.6.01.9-.42-.02-1.2-.18-1.94-.95-.14-.14-.36-.15-.5-.01-.14.14-.15.36-.01.5.93.98,1.95,1.16,2.49,1.18.05.97.17,1.94.41,2.82-.27.02-1.26.01-2.18-.95-.14-.14-.36-.15-.5-.01-.14.14-.15.36-.01.5.99,1.04,2.07,1.18,2.58,1.18.17,0,.28-.02.29-.02s.03,0,.05-.01c.51,1.33,1.4,2.27,2.93,2.27,3.2,0,3.61-3.95,3.61-7.38s-.41-7.38-3.61-7.38ZM20.61,201.9c-1.98,0-2.9-2.12-2.9-6.67s.92-6.67,2.9-6.67,2.9,2.06,2.9,6.67-.89,6.67-2.9,6.67Z"/>
        <path d="M20.7,195.7c0,1.13.39,1.7,1.17,1.7s1.17-.57,1.17-1.7-.39-1.7-1.17-1.7-1.17.57-1.17,1.7Z"/>
        <path d="M27.16,193.99c-.78,0-1.17.57-1.17,1.7s.39,1.7,1.17,1.7,1.17-.57,1.17-1.7-.39-1.7-1.17-1.7Z"/>
        <path d="M34.69,192.14c.14-.14.13-.37-.01-.5s-.37-.13-.5.01c-1.05,1.1-2.19.95-2.24.95h-.02c-.27-2.47-1.11-4.75-3.48-4.75-3.2,0-3.61,3.95-3.61,7.38s.41,7.38,3.61,7.38c1.53,0,2.42-.94,2.93-2.27.02,0,.03,0,.05.01s.12.02.29.02c.51,0,1.59-.14,2.58-1.18.14-.14.13-.37-.01-.5s-.37-.13-.5.01c-.92.97-1.91.97-2.18.95.24-.87.36-1.85.41-2.82.54-.02,1.56-.19,2.49-1.18.14-.14.13-.37-.01-.5s-.37-.13-.5.01c-.74.78-1.52.93-1.94.95,0-.31.01-.61.01-.9,0-.61-.01-1.27-.06-1.92.04,0,.08,0,.14,0,.51,0,1.59-.14,2.58-1.18ZM28.43,201.9c-2,0-2.9-2.06-2.9-6.67s.89-6.67,2.9-6.67,2.9,2.12,2.9,6.67-.92,6.67-2.9,6.67Z"/>
      </g>
    </g>
    <path d="M41.69,205.68c-.66-.03-1.31.2-1.8.64-.16.15-.18.4-.03.56.15.16.4.18.56.03.34-.31.77-.46,1.23-.44.09,0,.18.02.26.03-.74,3.46-3.31,5.86-6.32,5.86-3.38,0-6.24-3.16-6.5-7.19,0-.12-.07-.22-.15-.29.14-.02.28-.03.43-.02.45.04.87.25,1.16.59.14.17.39.19.56.05s.19-.39.05-.56c-.43-.51-1.04-.82-1.71-.87s-1.31.16-1.82.59-.82,1.04-.87,1.71c-.02.22.15.41.37.43h.03c.2,0,.38-.16.4-.37.04-.45.25-.87.59-1.16.06-.05.12-.09.18-.13,0,.03,0,.06,0,.09.29,4.45,3.5,7.93,7.3,7.93,3.33,0,6.19-2.57,7.06-6.3.06.05.12.11.18.17.31.34.46.77.44,1.23-.01.22.16.41.38.42h.02c.21,0,.39-.16.4-.38.03-.67-.2-1.31-.64-1.8-.45-.5-1.06-.79-1.73-.82Z"/>
    <path d="M35.49,203.82c.25-.06.53-.06.81,0,.4.09.74.3.96.59.21.27.28.57.22.85-.06.28-.26.53-.56.68-.33.16-.72.21-1.12.12-.21-.05-.43.09-.47.3-.05.21.09.43.3.47.19.04.39.06.58.06.38,0,.75-.08,1.07-.25.51-.26.86-.69.98-1.21s-.01-1.06-.37-1.51c-.34-.44-.84-.75-1.42-.88-.39-.09-.8-.08-1.17,0-.21.05-.34.27-.29.48s.28.34.49.29Z"/>
  </g>
</svg>